# xmcd CD database file
# Copyright (C) 1997 Ti Kan
#
# Track frame offsets:
#  150
#  19010
#  35562
#  48880
#  61872
#  80277
#  91952
#  107507
#  122395
#  135392
#  149910
#  161365
#  181257
#  196125
#  212560
#  232637
#
# Disc length: 3393 seconds
#
# Revision: 1
# Processed by: cddbd v1.4b41PL1 Copyright (c) Steve Scherf et al.
# Submitted via: CDWizzard Release:4.32
#
DISCID=c10d3f10
DTITLE=The Original Salty Dogs - Free Wheeling with the Original Salty Do
DTITLE=gs
DYEAR=1900
DGENRE=
TTITLE0=Panama
TTITLE1=You've been a good old wagon
TTITLE2=Emperor Noton's hunch
TTITLE3=All the wrongs you've done to me
TTITLE4=Come back sweet papa
TTITLE5=Cornet chop suey
TTITLE6=Tia juana
TTITLE7=The chant
TTITLE8=Ida, sweet as apple cider
TTITLE9=Flat foot
TTITLE10=Annie street rock
TTITLE11=Free wheeling
TTITLE12=All by myself
TTITLE13=Creole belles
TTITLE14=Wild man blues
TTITLE15=Since my best gal turned me down
EXTD=
EXTT0=
EXTT1=
EXTT2=
EXTT3=
EXTT4=
EXTT5=
EXTT6=
EXTT7=
EXTT8=
EXTT9=
EXTT10=
EXTT11=
EXTT12=
EXTT13=
EXTT14=
EXTT15=
PLAYORDER=
